<svg width="0" height="0" class="hidden">
  <symbol xmlns="http://www.w3.org/2000/svg" viewBox="0 0 330.002 330.002" id="next">
    <path d="M233.252,155.997L120.752,6.001c-4.972-6.628-14.372-7.97-21-3c-6.628,4.971-7.971,14.373-3,21
      l105.75,140.997L96.752,306.001c-4.971,6.627-3.627,16.03,3,21c2.698,2.024,5.856,3.001,8.988,3.001
      c4.561,0,9.065-2.072,12.012-6.001l112.5-150.004C237.252,168.664,237.252,161.33,233.252,155.997z">
    </path>
  </symbol>
  <symbol xmlns="http://www.w3.org/2000/svg" viewBox="0 0 512 512" id="prev">
    <path d="M168.837,256L388.418,36.418c8.331-8.331,8.331-21.839,0-30.17c-8.331-8.331-21.839-8.331-30.17,0L123.582,240.915
			c-8.331,8.331-8.331,21.839,0,30.17l234.667,234.667c8.331,8.331,21.839,8.331,30.17,0c8.331-8.331,8.331-21.839,0-30.17
			L168.837,256z">
    </path>
  </symbol>
</svg>
